<svg xmlns="http://www.w3.org/2000/svg" width="20px" height="20px"><g><g><path fill="#F2EFDF" d="M8.8,3.8c0.4,0.3,1.3,1.1,1.3,2.5c0,1.3-0.8,2-1.5,2.6C8.3,9,8,9.3,8,9.7c0,0.4,0.3,0.6,0.5,0.8L9.2,11c0.8,0.7,1.5,1.3,1.5,2.5c0,1.7-1.7,3.4-4.8,3.4C3.3,17,2,15.7,2,14.4c0-0.7,0.3-1.6,1.4-2.2c1.1-0.7,2.7-0.8,3.5-0.8c-0.3-0.3-0.5-0.7-0.5-1.2c0-0.3,0.1-0.5,0.2-0.7c-0.2,0-0.4,0-0.6,0c-1.9,0-3-1.4-3-2.9c0-0.8,0.4-1.8,1.2-2.4c1-0.9,2.3-1,3.2-1h3.7L9.9,3.8H8.8z M7.5,11.8c-0.1,0-0.2,0-0.4,0c-0.2,0-1.1,0-1.9,0.3c-0.4,0.1-1.6,0.6-1.6,1.9c0,1.3,1.3,2.2,3.2,2.2c1.7,0,2.7-0.8,2.7-2C9.5,13.3,8.9,12.8,7.5,11.8 M8,8.4c0.4-0.4,0.5-1,0.5-1.3c0-1.3-0.8-3.3-2.3-3.3c-0.5,0-1,0.2-1.3,0.6C4.6,4.7,4.5,5.2,4.5,5.7c0,1.2,0.7,3.2,2.3,3.2C7.2,8.9,7.7,8.7,8,8.4"/><polygon fill="#F2EFDF" points="18,5.8 15.2,5.8 15.2,3 14.6,3 14.6,5.8 11.8,5.8 11.8,6.5 14.6,6.5 14.6,9.3 15.2,9.3 15.2,6.5 18,6.5"/></g></g></svg>