<svg xmlns="http://www.w3.org/2000/svg" width="20px" height="20px"><path fill="#F2EFDF" d="M2,12.5c0,0,2.8,2.6,5.9-0.3c0,0-0.9,0.1-1.1-0.6c0,0-0.1-0.4,0.6-0.8c0,0-1.3,0.1-1.9-1	c0,0,0.3-0.4,1.1-0.5c0,0-1.5-0.2-1.8-1.7c0,0,0.4-0.1,0.9-0.1c0,0-1.3-0.7-1.3-2.1c0,0,3.8,1.3,5.3,2.9c0,0,1.2-3.5,2.5-4	c0,0,0,0.1-0.2,0.4c0,0,0.6-0.5,1.2-0.6c0,0,0.2,0.1-0.5,0.5c0,0,1.1-0.5,1.2-0.2c0,0,0.2,0.3-1.3,0.7c0,0,2.8-0.1,3.4,3.2	c0,0,1.1,0.3,1.9-0.1c0,0-0.2,0.8-1.7,0.9c0,0,0.8,0.3,1.8,0.2c0,0-0.7,0.9-1.9,0.7c0,0-0.6,2.8-3.3,4.2c-0.9,0.5-2.5,1.2-4,1.2	c-1,0-1.7,0-3-0.4c-0.7-0.2-1.8-0.8-2.6-1.5C2.7,13.3,2.3,13,2,12.5z"/></svg>