<?xml version="1.0" encoding="utf-8"?>
<!-- Generator: Adobe Illustrator 16.0.0, SVG Export Plug-In . SVG Version: 6.00 Build 0)  -->
<!DOCTYPE svg PUBLIC "-//W3C//DTD SVG 1.1//EN" "http://www.w3.org/Graphics/SVG/1.1/DTD/svg11.dtd">
<svg version="1.1" id="Layer_1" xmlns="http://www.w3.org/2000/svg" xmlns:xlink="http://www.w3.org/1999/xlink" x="0px" y="0px"
	 width="136px" height="38px" viewBox="0 0 136 38" enable-background="new 0 0 136 38" xml:space="preserve">
<g>
	<path fill="#269A7B" d="M76.533,30.203h6.268c6.777-0.004,10.477-2.467,10.477-11.918c0.002-7.188-3.133-11.912-10.629-11.916
		h-6.115V30.203z M69.65,0h12.84c12.64-0.002,17.979,7.805,17.979,18.283c0,11.916-5.803,18.285-16.693,18.285l-14.127-0.002
		L69.65,0z"/>
	<path fill="#269A7B" d="M112.064,30.203h6.268c6.777-0.004,10.477-2.467,10.477-11.918c0.002-7.188-3.133-11.912-10.629-11.916
		h-6.115V30.203z M105.182,0h12.84C130.661-0.002,136,7.805,136,18.283c0,11.916-5.803,18.285-16.693,18.285l-14.127-0.002
		L105.182,0z"/>
	<path fill="#269A7B" d="M64.082,25.324c0,7.449-5.905,12.176-14.744,12.176c-8.834-0.004-14.739-4.727-14.739-12.176V0.002h6.885
		l-0.002,23.523c0,4.469,1.902,7.297,7.859,7.297c5.961,0,7.858-2.828,7.858-7.297V0.002L64.082,0V25.324z"/>
	<path fill="#269A7B" d="M28.374,23.682c0,9.598-7.27,13.18-14.766,13.186C3.14,36.865,0,29.768,0,29.768l5.299-4.025
		c0,0,2.659,5.238,7.896,5.238c3.455,0,8.296-1.26,8.296-7.939V0.004L28.373,0L28.374,23.682L28.374,23.682z"/>
</g>
</svg>
